<svg width="20" height="19" viewBox="0 0 20 19" fill="none" xmlns="http://www.w3.org/2000/svg">
<path d="M18.3332 9.58341V12.1667C18.3332 14.0336 18.3332 14.967 17.9699 15.68C17.6503 16.3073 17.1403 16.8172 16.5131 17.1368C15.8001 17.5001 14.8667 17.5001 12.9998 17.5001H6.99984C5.133 17.5001 4.19957 17.5001 3.48654 17.1368C2.85933 16.8172 2.34939 16.3073 2.02982 15.68C1.6665 14.967 1.6665 14.0336 1.6665 12.1667V7.83341C1.6665 5.96657 1.6665 5.03315 2.02982 4.32011C2.34939 3.69291 2.85933 3.18297 3.48654 2.86339C4.19957 2.50008 5.133 2.50008 6.99984 2.50008H10.4165M15.8332 6.66675V1.66675M13.3332 4.16675H18.3332M13.3332 10.0001C13.3332 11.841 11.8408 13.3334 9.99984 13.3334C8.15889 13.3334 6.6665 11.841 6.6665 10.0001C6.6665 8.15913 8.15889 6.66675 9.99984 6.66675C11.8408 6.66675 13.3332 8.15913 13.3332 10.0001Z" stroke="#007DF1" stroke-width="2" stroke-linecap="round" stroke-linejoin="round"/>
</svg>
