<svg width="20" height="14" viewBox="0 0 20 14" fill="none" xmlns="http://www.w3.org/2000/svg">
<path d="M18.3332 4.44289C18.3332 3.93804 18.3332 3.68562 18.2333 3.56873C18.1467 3.46731 18.0168 3.41349 17.8838 3.42395C17.7306 3.43602 17.5521 3.61451 17.1951 3.97149L14.1665 7.00008L17.1951 10.0287C17.5521 10.3857 17.7306 10.5641 17.8838 10.5762C18.0168 10.5867 18.1467 10.5328 18.2333 10.4314C18.3332 10.3145 18.3332 10.0621 18.3332 9.55727V4.44289Z" stroke="#007DF1" stroke-width="2" stroke-linecap="round" stroke-linejoin="round"/>
<path d="M1.6665 5.16675C1.6665 3.76662 1.6665 3.06655 1.93899 2.53177C2.17867 2.06137 2.56112 1.67892 3.03153 1.43923C3.56631 1.16675 4.26637 1.16675 5.6665 1.16675H10.1665C11.5666 1.16675 12.2667 1.16675 12.8015 1.43923C13.2719 1.67892 13.6543 2.06137 13.894 2.53177C14.1665 3.06655 14.1665 3.76662 14.1665 5.16675V8.83341C14.1665 10.2335 14.1665 10.9336 13.894 11.4684C13.6543 11.9388 13.2719 12.3212 12.8015 12.5609C12.2667 12.8334 11.5666 12.8334 10.1665 12.8334H5.6665C4.26637 12.8334 3.56631 12.8334 3.03153 12.5609C2.56112 12.3212 2.17867 11.9388 1.93899 11.4684C1.6665 10.9336 1.6665 10.2335 1.6665 8.83341V5.16675Z" stroke="#007DF1" stroke-width="2" stroke-linecap="round" stroke-linejoin="round"/>
</svg>
