<svg width="14" height="18" viewBox="0 0 14 18" fill="none" xmlns="http://www.w3.org/2000/svg">
<path d="M1.1665 3.15809C1.1665 2.34879 1.1665 1.94414 1.33525 1.72108C1.48225 1.52675 1.70694 1.4065 1.95017 1.39198C2.22937 1.37531 2.56606 1.59977 3.23944 2.04869L12.0024 7.89067C12.5588 8.2616 12.837 8.44707 12.934 8.68084C13.0187 8.88522 13.0187 9.11491 12.934 9.31929C12.837 9.55306 12.5588 9.73853 12.0024 10.1095L3.23944 15.9514C2.56606 16.4004 2.22937 16.6248 1.95017 16.6082C1.70694 16.5936 1.48225 16.4734 1.33525 16.2791C1.1665 16.056 1.1665 15.6513 1.1665 14.842V3.15809Z" stroke="#007DF1" stroke-width="2" stroke-linecap="round" stroke-linejoin="round"/>
</svg>
