<svg width="41" height="41" viewBox="0 0 41 41" fill="none" xmlns="http://www.w3.org/2000/svg">
<rect x="0.5" y="0.5" width="40" height="40" rx="7.5" fill="#EBF8FF"/>
<rect x="0.5" y="0.5" width="40" height="40" rx="7.5" stroke="#007DF1"/>
<path fill-rule="evenodd" clip-rule="evenodd" d="M16.5 13.5C16.5 11.8431 17.8431 10.5 19.5 10.5H21.5C23.1569 10.5 24.5 11.8431 24.5 13.5V14.6707C24.8128 14.5602 25.1494 14.5 25.5 14.5H27.5C29.1569 14.5 30.5 15.8431 30.5 17.5V27.5C30.5 29.1569 29.1569 30.5 27.5 30.5H13.5C11.8431 30.5 10.5 29.1569 10.5 27.5V21.5C10.5 19.8431 11.8431 18.5 13.5 18.5H15.5C15.8506 18.5 16.1872 18.5602 16.5 18.6707V13.5ZM18.5 28.5H22.5V13.5C22.5 12.9477 22.0523 12.5 21.5 12.5H19.5C18.9477 12.5 18.5 12.9477 18.5 13.5V28.5ZM24.5 28.5H27.5C28.0523 28.5 28.5 28.0523 28.5 27.5V17.5C28.5 16.9477 28.0523 16.5 27.5 16.5H25.5C24.9477 16.5 24.5 16.9477 24.5 17.5V28.5ZM16.5 28.5V21.5C16.5 20.9477 16.0523 20.5 15.5 20.5H13.5C12.9477 20.5 12.5 20.9477 12.5 21.5V27.5C12.5 28.0523 12.9477 28.5 13.5 28.5H16.5Z" fill="#007DF1"/>
</svg>
