<svg width="18" height="18" viewBox="0 0 18 18" fill="none" xmlns="http://www.w3.org/2000/svg">
<path d="M5.25 9.00012H5.25833M9 9.00012H9.00833M12.75 9.00012H12.7583M9 16.5001C13.1421 16.5001 16.5 13.1423 16.5 9.00012C16.5 4.85799 13.1421 1.50012 9 1.50012C4.85786 1.50012 1.5 4.85799 1.5 9.00012C1.5 9.99774 1.69478 10.9499 2.04839 11.8205C2.11606 11.9872 2.1499 12.0705 2.165 12.1379C2.17976 12.2037 2.18516 12.2525 2.18517 12.32C2.18518 12.389 2.17265 12.4642 2.14759 12.6146L1.65344 15.5795C1.60169 15.89 1.57582 16.0452 1.62397 16.1575C1.66611 16.2557 1.7444 16.334 1.84265 16.3762C1.95491 16.4243 2.11015 16.3984 2.42063 16.3467L5.38554 15.8525C5.53591 15.8275 5.61109 15.8149 5.68011 15.8149C5.74763 15.815 5.79638 15.8204 5.86227 15.8351C5.92962 15.8502 6.01294 15.8841 6.17958 15.9517C7.05025 16.3053 8.00238 16.5001 9 16.5001ZM5.66667 9.00012C5.66667 9.23024 5.48012 9.41679 5.25 9.41679C5.01988 9.41679 4.83333 9.23024 4.83333 9.00012C4.83333 8.77 5.01988 8.58346 5.25 8.58346C5.48012 8.58346 5.66667 8.77 5.66667 9.00012ZM9.41667 9.00012C9.41667 9.23024 9.23012 9.41679 9 9.41679C8.76988 9.41679 8.58333 9.23024 8.58333 9.00012C8.58333 8.77 8.76988 8.58346 9 8.58346C9.23012 8.58346 9.41667 8.77 9.41667 9.00012ZM13.1667 9.00012C13.1667 9.23024 12.9801 9.41679 12.75 9.41679C12.5199 9.41679 12.3333 9.23024 12.3333 9.00012C12.3333 8.77 12.5199 8.58346 12.75 8.58346C12.9801 8.58346 13.1667 8.77 13.1667 9.00012Z" stroke="#007DF1" stroke-width="2" stroke-linecap="round" stroke-linejoin="round"/>
</svg>
