<svg width="19" height="19" viewBox="0 0 19 19" fill="none" xmlns="http://www.w3.org/2000/svg">
<path d="M2.84471 7.95385C2.34859 7.76092 2.10052 7.66445 2.0281 7.52545C1.96532 7.40495 1.96524 7.26141 2.02788 7.14083C2.10013 7.00175 2.34808 6.90499 2.84398 6.71147L16.9171 1.21952C17.3647 1.04482 17.5886 0.957478 17.7316 1.00526C17.8558 1.04675 17.9533 1.14422 17.9948 1.26843C18.0426 1.41146 17.9552 1.63528 17.7805 2.08293L12.2886 16.1561C12.095 16.6519 11.9983 16.8999 11.8592 16.9722C11.7386 17.0348 11.5951 17.0347 11.4746 16.9719C11.3356 16.8995 11.2391 16.6514 11.0462 16.1553L8.85608 10.5237C8.81692 10.4229 8.79734 10.3726 8.76709 10.3302C8.74028 10.2926 8.70742 10.2597 8.66984 10.2329C8.62744 10.2027 8.57708 10.1831 8.47638 10.1439L2.84471 7.95385Z" stroke="#007DF1" stroke-width="2" stroke-linecap="round" stroke-linejoin="round"/>
</svg>
