<svg width="18" height="18" viewBox="0 0 18 18" fill="none" xmlns="http://www.w3.org/2000/svg">
<path d="M12.5 16.5001H4.77614C4.2713 16.5001 4.01887 16.5001 3.90199 16.4003C3.80056 16.3137 3.74674 16.1837 3.75721 16.0508C3.76927 15.8975 3.94776 15.719 4.30474 15.362L11.3905 8.27626C11.7205 7.94625 11.8855 7.78124 12.0758 7.71942C12.2432 7.66504 12.4235 7.66504 12.5908 7.71942C12.7811 7.78124 12.9461 7.94625 13.2761 8.27626L16.5 11.5001V12.5001M12.5 16.5001C13.9001 16.5001 14.6002 16.5001 15.135 16.2276C15.6054 15.988 15.9878 15.6055 16.2275 15.1351C16.5 14.6003 16.5 13.9003 16.5 12.5001M12.5 16.5001H5.5C4.09987 16.5001 3.3998 16.5001 2.86502 16.2276C2.39462 15.988 2.01217 15.6055 1.77248 15.1351C1.5 14.6003 1.5 13.9003 1.5 12.5001V5.50012C1.5 4.09999 1.5 3.39993 1.77248 2.86515C2.01217 2.39474 2.39462 2.01229 2.86502 1.77261C3.3998 1.50012 4.09987 1.50012 5.5 1.50012H12.5C13.9001 1.50012 14.6002 1.50012 15.135 1.77261C15.6054 2.01229 15.9878 2.39474 16.2275 2.86515C16.5 3.39993 16.5 4.09999 16.5 5.50012V12.5001M7.75 6.08346C7.75 7.00393 7.00381 7.75012 6.08333 7.75012C5.16286 7.75012 4.41667 7.00393 4.41667 6.08346C4.41667 5.16298 5.16286 4.41679 6.08333 4.41679C7.00381 4.41679 7.75 5.16298 7.75 6.08346Z" stroke="#007DF1" stroke-width="2" stroke-linecap="round" stroke-linejoin="round"/>
</svg>
