<svg width="41" height="41" viewBox="0 0 41 41" fill="none" xmlns="http://www.w3.org/2000/svg">
<rect x="0.5" y="0.5" width="40" height="40" rx="7.5" fill="#007DF1"/>
<rect x="0.5" y="0.5" width="40" height="40" rx="7.5" stroke="#007DF1"/>
<path fill-rule="evenodd" clip-rule="evenodd" d="M11.5 10.5C12.0523 10.5 12.5 10.9477 12.5 11.5V27.5C12.5 28.0523 12.9477 28.5 13.5 28.5H29.5C30.0523 28.5 30.5 28.9477 30.5 29.5C30.5 30.0523 30.0523 30.5 29.5 30.5H13.5C11.8431 30.5 10.5 29.1569 10.5 27.5V11.5C10.5 10.9477 10.9477 10.5 11.5 10.5ZM27.0299 13.652C27.2548 13.7925 27.4147 14.0166 27.4744 14.275L28.4288 18.409C28.553 18.9471 28.2175 19.484 27.6793 19.6083C27.1412 19.7325 26.6043 19.397 26.48 18.8589L26.0468 16.9825L23.6654 20.5547C23.4799 20.8329 23.1677 21 22.8333 21H19.7018L16.3321 26.0547C16.0257 26.5142 15.4048 26.6384 14.9453 26.3321C14.4858 26.0257 14.3616 25.4048 14.6679 24.9453L18.3346 19.4453C18.5201 19.1671 18.8323 19 19.1667 19H22.2981L24.2708 16.041L22.5911 16.4288C22.0529 16.553 21.516 16.2175 21.3917 15.6794C21.2675 15.1412 21.603 14.6043 22.1412 14.48L26.275 13.5256C26.5335 13.466 26.805 13.5114 27.0299 13.652Z" fill="white"/>
</svg>
