<svg width="44" height="44" viewBox="0 0 44 44" fill="none" xmlns="http://www.w3.org/2000/svg">
<rect width="44" height="44" rx="22" fill="#4CAF50" fill-opacity="0.16"/>
<path d="M24 17H26.3373C26.5818 17 26.7041 17 26.8192 17.0276C26.9213 17.0521 27.0188 17.0925 27.1083 17.1474C27.2092 17.2092 27.2957 17.2957 27.4686 17.4686L31.5314 21.5314C31.7043 21.7043 31.7908 21.7908 31.8526 21.8917C31.9075 21.9812 31.9479 22.0787 31.9724 22.1808C32 22.2959 32 22.4182 32 22.6627V25.5C32 25.9659 32 26.1989 31.9239 26.3827C31.8224 26.6277 31.6277 26.8224 31.3827 26.9239C31.1989 27 30.9659 27 30.5 27M25.5 27H24M24 27V17.2C24 16.0799 24 15.5198 23.782 15.092C23.5903 14.7157 23.2843 14.4097 22.908 14.218C22.4802 14 21.9201 14 20.8 14H15.2C14.0799 14 13.5198 14 13.092 14.218C12.7157 14.4097 12.4097 14.7157 12.218 15.092C12 15.5198 12 16.0799 12 17.2V25C12 26.1046 12.8954 27 14 27M24 27H20M20 27C20 28.6569 18.6569 30 17 30C15.3431 30 14 28.6569 14 27M20 27C20 25.3431 18.6569 24 17 24C15.3431 24 14 25.3431 14 27M30.5 27.5C30.5 28.8807 29.3807 30 28 30C26.6193 30 25.5 28.8807 25.5 27.5C25.5 26.1193 26.6193 25 28 25C29.3807 25 30.5 26.1193 30.5 27.5Z" stroke="#00B407" stroke-width="2" stroke-linecap="round" stroke-linejoin="round"/>
</svg>
