<svg width="41" height="41" viewBox="0 0 41 41" fill="none" xmlns="http://www.w3.org/2000/svg">
<rect width="41" height="41" rx="8" fill="#EBF8FF"/>
<path d="M23.0421 18H15.0833C13.9327 18 13 17.0673 13 15.9167C13 14.7661 13.9327 13.8333 15.0833 13.8333H23.0421M17.9579 27.1667H25.9167C27.0673 27.1667 28 26.2339 28 25.0833C28 23.9327 27.0673 23 25.9167 23H17.9579M13 25.0833C13 26.6942 14.3058 28 15.9167 28C17.5275 28 18.8333 26.6942 18.8333 25.0833C18.8333 23.4725 17.5275 22.1667 15.9167 22.1667C14.3058 22.1667 13 23.4725 13 25.0833ZM28 15.9167C28 17.5275 26.6942 18.8333 25.0833 18.8333C23.4725 18.8333 22.1667 17.5275 22.1667 15.9167C22.1667 14.3058 23.4725 13 25.0833 13C26.6942 13 28 14.3058 28 15.9167Z" stroke="#007DF1" stroke-width="2" stroke-linecap="round" stroke-linejoin="round"/>
</svg>
