<svg width="18" height="20" viewBox="0 0 18 20" fill="none" xmlns="http://www.w3.org/2000/svg">
<path d="M13.1667 16.6667H13C11.5999 16.6667 10.8998 16.6667 10.365 16.3943C9.89462 16.1546 9.51217 15.7721 9.27248 15.3017C9 14.7669 9 14.0669 9 12.6667V7.33342C9 5.93328 9 5.23322 9.27248 4.69844C9.51217 4.22803 9.89462 3.84558 10.365 3.6059C10.8998 3.33341 11.5999 3.33341 13 3.33341H13.1667M13.1667 16.6667C13.1667 17.5872 13.9129 18.3334 14.8333 18.3334C15.7538 18.3334 16.5 17.5872 16.5 16.6667C16.5 15.7463 15.7538 15.0001 14.8333 15.0001C13.9129 15.0001 13.1667 15.7463 13.1667 16.6667ZM13.1667 3.33341C13.1667 4.25389 13.9129 5.00008 14.8333 5.00008C15.7538 5.00008 16.5 4.25389 16.5 3.33341C16.5 2.41294 15.7538 1.66675 14.8333 1.66675C13.9129 1.66675 13.1667 2.41294 13.1667 3.33341ZM4.83333 10.0001L13.1667 10.0001M4.83333 10.0001C4.83333 10.9206 4.08714 11.6667 3.16667 11.6667C2.24619 11.6667 1.5 10.9206 1.5 10.0001C1.5 9.07961 2.24619 8.33342 3.16667 8.33342C4.08714 8.33342 4.83333 9.07961 4.83333 10.0001ZM13.1667 10.0001C13.1667 10.9206 13.9129 11.6667 14.8333 11.6667C15.7538 11.6667 16.5 10.9206 16.5 10.0001C16.5 9.07961 15.7538 8.33342 14.8333 8.33342C13.9129 8.33342 13.1667 9.07961 13.1667 10.0001Z" stroke="#737373" stroke-width="2" stroke-linecap="round" stroke-linejoin="round"/>
</svg>
