<svg width="25" height="25" viewBox="0 0 25 25" fill="none" xmlns="http://www.w3.org/2000/svg">
<path d="M8.60986 19.5002H8.10986C4.10986 19.5002 2.10986 18.5002 2.10986 13.5002V8.50024C2.10986 4.50024 4.10986 2.50024 8.10986 2.50024H16.1099C20.1099 2.50024 22.1099 4.50024 22.1099 8.50024V13.5002C22.1099 17.5002 20.1099 19.5002 16.1099 19.5002H15.6099C15.2999 19.5002 14.9999 19.6502 14.8099 19.9002L13.3099 21.9002C12.6499 22.7802 11.5699 22.7802 10.9099 21.9002L9.40986 19.9002C9.24986 19.6802 8.87986 19.5002 8.60986 19.5002Z" stroke="#007DF1" stroke-width="1.5" stroke-miterlimit="10" stroke-linecap="round" stroke-linejoin="round"/>
<path d="M7.10986 8.50024H17.1099" stroke="#007DF1" stroke-width="1.5" stroke-linecap="round" stroke-linejoin="round"/>
<path d="M7.10986 13.5002H13.1099" stroke="#007DF1" stroke-width="1.5" stroke-linecap="round" stroke-linejoin="round"/>
</svg>
