<svg width="19" height="20" viewBox="0 0 19 20" fill="none" xmlns="http://www.w3.org/2000/svg">
<path d="M1.7388 13.0377L3.32896 12.1197C3.41509 12.07 3.51617 12.0527 3.61392 12.071L6.74267 12.6566C6.9998 12.7047 7.23715 12.5067 7.23599 12.2452L7.2238 9.50379C7.22347 9.42931 7.24311 9.3561 7.28068 9.29179L8.85962 6.58859C8.94179 6.44791 8.93443 6.27223 8.84077 6.13892L6.18227 2.35482M15.3334 4.04929C10.75 6.25012 13.2499 9.16678 14.0834 9.58345C15.6476 10.3654 17.8229 10.4167 17.8229 10.4167C17.8297 10.2787 17.8332 10.1398 17.8332 10.0001C17.8332 5.39771 14.1022 1.66675 9.49984 1.66675C4.89746 1.66675 1.1665 5.39771 1.1665 10.0001C1.1665 14.6025 4.89746 18.3334 9.49984 18.3334C9.63956 18.3334 9.77847 18.33 9.9165 18.3232M13.4647 18.2832L10.8257 11.3259L17.783 13.9649L14.6979 15.1981L13.4647 18.2832Z" stroke="#737373" stroke-width="2" stroke-linecap="round" stroke-linejoin="round"/>
</svg>
