<svg width="64" height="20" viewBox="0 0 64 20" fill="none" xmlns="http://www.w3.org/2000/svg">
<circle cx="6" cy="10" r="6" fill="#4CAF50"/>
<path d="M28 14.644C24.88 14.644 22.688 12.244 22.688 8.932V8.868C22.688 5.572 24.992 3.14 28.16 3.14H28.176C30.192 3.14 31.728 4.148 32.592 5.588L31.184 6.468C30.576 5.348 29.632 4.692 28.24 4.692H28.208C25.952 4.692 24.448 6.42 24.448 8.868V8.948C24.448 11.412 25.952 13.092 28.224 13.092H28.24C30.176 13.092 31.36 11.956 31.36 10.42V10.148H28.656V8.66H32.976V14.5H31.728C31.6 14.228 31.504 13.7 31.472 13.268C30.672 14.116 29.408 14.644 28.064 14.644H28ZM35.3939 14.5V3.3H39.2179C41.5859 3.3 43.1699 4.708 43.1699 6.9V6.996C43.1699 9.204 41.6179 10.628 39.2499 10.628H37.0899V14.5H35.3939ZM37.0579 9.172H39.1539C40.6099 9.172 41.4419 8.34 41.4419 7.012V6.932C41.4419 5.62 40.6099 4.82 39.1699 4.82H37.0579V9.172ZM45.0501 14.5V3.3H49.1141C51.5461 3.3 53.0021 4.58 53.0021 6.692V6.852C53.0021 8.324 52.2341 9.428 50.9381 9.924L53.7861 14.5H51.7381L49.2421 10.292H46.7461V14.5H45.0501ZM46.7141 8.852H48.9701C50.5061 8.852 51.2741 8.132 51.2741 6.9V6.74C51.2741 5.508 50.4741 4.804 48.9701 4.804H46.7141V8.852ZM58.8796 14.676C57.3276 14.676 55.7116 14.148 54.5756 13.044L55.5356 11.732C56.4156 12.644 57.7276 13.092 58.9756 13.092C60.3516 13.092 61.2316 12.5 61.2316 11.524C61.2316 10.324 59.9356 9.956 58.5276 9.54C56.7836 9.028 54.8636 8.372 54.8636 6.228C54.8636 4.164 56.6556 3.124 58.5916 3.124C60.1276 3.124 61.5516 3.652 62.5116 4.548L61.5356 5.828C60.7996 5.092 59.6156 4.724 58.5916 4.724C57.3276 4.724 56.5436 5.3 56.5436 6.18C56.5436 7.22 57.7436 7.604 59.1676 8.02C60.9596 8.548 62.9596 9.22 62.9596 11.412C62.9596 13.556 61.0716 14.676 58.8796 14.676Z" fill="#4CAF50"/>
</svg>
