<svg width="19" height="19" viewBox="0 0 19 19" fill="none" xmlns="http://www.w3.org/2000/svg">
<path d="M12.0262 6.35956C11.6962 6.02954 11.5311 5.86454 11.4693 5.67426C11.4149 5.50689 11.4149 5.3266 11.4693 5.15923C11.5311 4.96896 11.6962 4.80395 12.0262 4.47394L14.3915 2.10863C13.7638 1.82477 13.067 1.66675 12.3334 1.66675C9.57194 1.66675 7.33336 3.90532 7.33336 6.66675C7.33336 7.07595 7.38252 7.47367 7.47524 7.85432C7.57454 8.26195 7.62419 8.46576 7.61538 8.59452C7.60615 8.72932 7.58605 8.80104 7.52389 8.92101C7.46451 9.0356 7.35074 9.14937 7.12321 9.3769L1.91669 14.5834C1.22634 15.2738 1.22634 16.3931 1.91669 17.0834C2.60705 17.7738 3.72634 17.7738 4.41669 17.0834L9.62321 11.8769C9.85074 11.6494 9.96451 11.5356 10.0791 11.4762C10.1991 11.4141 10.2708 11.394 10.4056 11.3847C10.5343 11.3759 10.7382 11.4256 11.1458 11.5249C11.5264 11.6176 11.9242 11.6667 12.3334 11.6667C15.0948 11.6667 17.3334 9.42817 17.3334 6.66675C17.3334 5.93307 17.1753 5.23631 16.8915 4.60863L14.5262 6.97394C14.1962 7.30395 14.0311 7.46896 13.8409 7.53078C13.6735 7.58517 13.4932 7.58517 13.3258 7.53078C13.1356 7.46896 12.9706 7.30395 12.6405 6.97394L12.0262 6.35956Z" stroke="black" stroke-width="2" stroke-linecap="round" stroke-linejoin="round"/>
</svg>
